<svg xmlns="http://www.w3.org/2000/svg" viewBox="0 0 1200 800" role="img" aria-labelledby="title desc">
  <title id="title">Tanzanie</title>
  <desc id="desc">Illustration placeholder de savane, soleil et route aérienne.</desc>
  <rect width="1200" height="800" fill="#F7F7F2"/>
  <circle cx="910" cy="165" r="105" fill="#00B6C7" opacity=".38"/>
  <path d="M0 470c200-80 360-110 570-42 190 62 375 33 630-80v452H0Z" fill="#0B8F66" opacity=".82"/>
  <path d="M0 595c290-60 505-42 705 20 177 55 313 42 495-40v225H0Z" fill="#0D47A1"/>
  <path d="M155 330c235-90 455-90 680-15 126 42 220 45 310 10" fill="none" stroke="#00B6C7" stroke-width="16" stroke-linecap="round"/>
  <path d="M875 300l70 16-51 18-19 50-17-43-48-12 43-17 22-12z" fill="#0D47A1"/>
</svg>
